<?xml version="1.0" standalone="no"?>
<!DOCTYPE svg PUBLIC "-//W3C//DTD SVG 20010904//EN"
 "http://www.w3.org/TR/2001/REC-SVG-20010904/DTD/svg10.dtd">
<svg version="1.0" xmlns="http://www.w3.org/2000/svg"
 width="147.000000pt" height="147.000000pt" viewBox="0 0 147.000000 147.000000"
 preserveAspectRatio="xMidYMid meet">

<g transform="translate(0.000000,147.000000) scale(0.100000,-0.100000)"
stroke="#FFFFFF" fill="#FFFFFF" stroke="none">
<path d="M625 1355 c-276 -51 -474 -260 -515 -543 -38 -255 99 -521 329 -641
78 -40 173 -71 221 -71 l25 0 -3 132 c-1 73 2 139 7 147 6 9 44 17 112 23 57
5 111 12 119 15 28 9 -90 55 -149 57 -60 2 -79 -5 -145 -61 -47 -39 -104 -53
-121 -30 -8 11 -16 12 -28 6 -13 -8 -19 -6 -23 5 -4 11 -18 15 -44 13 -32 -2
-41 -7 -56 -35 -22 -40 -48 -45 -33 -5 5 14 16 76 23 137 7 61 14 116 16 121
6 23 -1 45 -14 45 -26 0 -30 23 -7 42 19 15 22 26 20 62 -4 44 -4 44 25 39 18
-4 27 -2 23 4 -11 18 -17 73 -8 73 4 0 20 -9 34 -20 21 -17 26 -18 31 -5 3 8
14 15 25 15 10 0 22 7 25 16 3 9 13 14 20 11 8 -3 17 1 20 9 3 8 15 14 26 14
15 0 20 7 20 28 0 16 8 36 18 45 13 12 17 26 14 47 -3 22 0 30 11 30 9 0 18
-4 21 -8 8 -14 95 -6 113 10 32 28 61 38 108 38 109 0 189 -97 172 -207 -7
-39 2 -61 41 -108 20 -24 23 -36 18 -71 -5 -39 -3 -43 25 -54 52 -22 106 -67
151 -126 l43 -57 19 59 c30 94 27 265 -7 370 -74 226 -260 387 -497 430 -91
16 -134 16 -225 -1z"/>
<path d="M714 1024 c-4 -10 -9 -22 -11 -26 -2 -5 0 -8 5 -8 10 0 24 41 17 48
-3 3 -8 -4 -11 -14z"/>
<path d="M650 980 c-33 -8 -38 -35 -6 -36 17 -1 26 5 30 19 6 26 7 25 -24 17z"/>
<path d="M1062 728 c-10 -30 -10 -31 3 -14 13 17 21 46 12 46 -1 0 -8 -15 -15
-32z"/>
<path d="M403 583 c-10 -10 -13 -14 -5 -9 7 5 30 13 50 17 37 7 37 7 6 8 -18
0 -40 -7 -51 -16z"/>
<path d="M405 540 c-3 -6 1 -7 9 -4 18 7 21 14 7 14 -6 0 -13 -4 -16 -10z"/>
<path d="M1040 496 c0 -2 7 -7 16 -10 8 -3 12 -2 9 4 -6 10 -25 14 -25 6z"/>
<path d="M770 282 c0 -15 -3 -64 -7 -109 l-6 -82 54 6 c30 3 55 7 57 8 1 1
-11 17 -28 35 -34 37 -40 85 -14 125 17 27 17 27 -33 38 -19 4 -23 1 -23 -21z"/>
</g>
</svg>
