<svg xmlns="http://www.w3.org/2000/svg" width="43.545" height="35.85" viewBox="0 0 43.545 35.85"><g transform="translate(0 -4.542)"><g transform="translate(0 4.542)"><path d="M22.02,11.091c7.337.072,11.934-.385,12.555,7.748h8.947c0-12.6-10.988-14.3-21.735-14.3S.052,6.24.052,18.839H8.93C9.617,10.551,14.743,11.02,22.02,11.091Z" transform="translate(-0.008 -4.542)" fill="#fff"/><path d="M4.481,25.659c2.179,0,3.993.13,4.4-2.013a5.47,5.47,0,0,0,.086-1H0C0,25.831,2.006,25.659,4.481,25.659Z" transform="translate(0 -7.312)" fill="#fff"/><path d="M40.865,22.642h-.084a4.788,4.788,0,0,0,.095,1c.425,1.977,2.236,1.854,4.408,1.854,2.487,0,4.5.163,4.5-2.858H40.865Z" transform="translate(-6.241 -7.312)" fill="#fff"/><path d="M30.821,19.74V18.473c0-.567-.653-.6-1.459-.6H28.045c-.805,0-1.458.036-1.458.6v1.939H17.27V18.473c0-.567-.653-.6-1.458-.6H14.494c-.805,0-1.458.036-1.458.6v2.373c-2.123,2.206-9.068,11.594-9.32,12.731l0,7.585a1.272,1.272,0,0,0,1.27,1.27H38.868a1.272,1.272,0,0,0,1.27-1.27V33.539c-.25-1.1-7.193-10.488-9.317-12.693ZM16.811,34.6a1.235,1.235,0,1,1,1.235-1.235A1.235,1.235,0,0,1,16.811,34.6Zm0-4.235a1.235,1.235,0,1,1,1.235-1.235A1.235,1.235,0,0,1,16.811,30.363Zm0-4.234a1.235,1.235,0,1,1,1.235-1.235A1.235,1.235,0,0,1,16.811,26.129ZM21.893,34.6a1.235,1.235,0,1,1,1.235-1.235A1.235,1.235,0,0,1,21.893,34.6Zm0-4.235a1.235,1.235,0,1,1,1.235-1.235A1.235,1.235,0,0,1,21.893,30.363Zm0-4.234a1.235,1.235,0,1,1,1.235-1.235A1.235,1.235,0,0,1,21.893,26.129ZM26.974,34.6a1.235,1.235,0,1,1,1.235-1.235A1.234,1.234,0,0,1,26.974,34.6Zm0-4.235a1.235,1.235,0,1,1,1.235-1.235A1.234,1.234,0,0,1,26.974,30.363Zm0-4.234a1.235,1.235,0,1,1,1.235-1.235A1.234,1.234,0,0,1,26.974,26.129Z" transform="translate(-0.569 -6.582)" fill="#fff"/></g></g></svg>