<svg xmlns="http://www.w3.org/2000/svg" width="541.002" height="109" viewBox="0 0 541.002 109"><g transform="translate(2421.208 -979)"><line y2="109" transform="translate(-2197.49 979)" fill="none" stroke="#fff" stroke-width="4"/><path d="M5.742-8.682v5.4a3.785,3.785,0,0,0,.383,2.174,1.965,1.965,0,0,0,1.572.6h.711V0H.465V-.506h.7a1.864,1.864,0,0,0,1.682-.766,4.509,4.509,0,0,0,.273-2.01V-15.258a3.9,3.9,0,0,0-.369-2.174,2.009,2.009,0,0,0-1.586-.6h-.7v-.506H7.26a12.041,12.041,0,0,1,3.924.513A5.4,5.4,0,0,1,13.6-16.3a4.445,4.445,0,0,1,.984,2.885,4.861,4.861,0,0,1-1.5,3.691A5.9,5.9,0,0,1,8.859-8.3a11.938,11.938,0,0,1-1.449-.1Q6.631-8.49,5.742-8.682Zm0-.779q.725.137,1.285.205a8.091,8.091,0,0,0,.957.068,3.253,3.253,0,0,0,2.454-1.1,4,4,0,0,0,1.032-2.851,5.126,5.126,0,0,0-.492-2.235,3.4,3.4,0,0,0-1.395-1.545,4.078,4.078,0,0,0-2.051-.513,8.092,8.092,0,0,0-1.791.26ZM34.494,0H29.545L23.27-8.668q-.7.027-1.135.027-.178,0-.383-.007t-.424-.021v5.387a3.785,3.785,0,0,0,.383,2.174,1.948,1.948,0,0,0,1.559.6h.725V0H16.051V-.506h.7a1.864,1.864,0,0,0,1.682-.766,4.316,4.316,0,0,0,.287-2.01V-15.258a3.785,3.785,0,0,0-.383-2.174,2.009,2.009,0,0,0-1.586-.6h-.7v-.506H22.8a16.061,16.061,0,0,1,4.354.431,4.982,4.982,0,0,1,2.379,1.586,4.126,4.126,0,0,1,.978,2.755A4.329,4.329,0,0,1,29.4-10.8a6.294,6.294,0,0,1-3.452,1.777l3.828,5.318a9.512,9.512,0,0,0,2.256,2.434,5.682,5.682,0,0,0,2.461.766ZM21.328-9.529q.26,0,.451.007t.314.007a6.024,6.024,0,0,0,4-1.148,3.676,3.676,0,0,0,1.347-2.926,3.819,3.819,0,0,0-1.087-2.823A3.89,3.89,0,0,0,23.475-17.5a12.066,12.066,0,0,0-2.146.26Zm23.16-9.434a8.408,8.408,0,0,1,6.255,2.741,9.463,9.463,0,0,1,2.646,6.843,9.746,9.746,0,0,1-2.666,7.014A8.6,8.6,0,0,1,44.27.424,8.551,8.551,0,0,1,37.837-2.3a9.761,9.761,0,0,1-2.6-7.041,9.38,9.38,0,0,1,3.008-7.205A8.873,8.873,0,0,1,44.488-18.963Zm-.26,1a4.892,4.892,0,0,0-3.992,1.846q-1.873,2.3-1.873,6.727,0,4.539,1.941,6.986A4.8,4.8,0,0,0,44.242-.547a5.38,5.38,0,0,0,4.313-2.037q1.7-2.037,1.7-6.426,0-4.758-1.873-7.1A5.052,5.052,0,0,0,44.229-17.965Zm27.426-1,.479,5.852h-.479a8,8,0,0,0-1.873-3.295,5.863,5.863,0,0,0-4.252-1.6,6.047,6.047,0,0,0-5.387,2.8A10.069,10.069,0,0,0,58.6-9.57a11.262,11.262,0,0,0,1.025,4.84A7.2,7.2,0,0,0,62.31-1.524,6.448,6.448,0,0,0,65.721-.506,7.534,7.534,0,0,0,67.7-.766a7.906,7.906,0,0,0,1.846-.766V-6.891a4.956,4.956,0,0,0-.212-1.825,1.431,1.431,0,0,0-.656-.656A3.8,3.8,0,0,0,67.115-9.6v-.52h7.178v.52h-.342a1.526,1.526,0,0,0-1.463.711,4.8,4.8,0,0,0-.273,2v5.674a13.89,13.89,0,0,1-3.1,1.244,13.582,13.582,0,0,1-3.4.4q-5.373,0-8.162-3.445a9.2,9.2,0,0,1-2.092-5.961,9.966,9.966,0,0,1,1.176-4.689,10.039,10.039,0,0,1,3.828-4.1,9.376,9.376,0,0,1,4.813-1.189,9.48,9.48,0,0,1,1.839.164,16.8,16.8,0,0,1,2.345.725,3.783,3.783,0,0,0,1.025.287.547.547,0,0,0,.444-.239,1.828,1.828,0,0,0,.226-.937ZM93.611,0H88.662L82.387-8.668q-.7.027-1.135.027-.178,0-.383-.007t-.424-.021v5.387a3.785,3.785,0,0,0,.383,2.174,1.948,1.948,0,0,0,1.559.6h.725V0H75.168V-.506h.7a1.864,1.864,0,0,0,1.682-.766,4.316,4.316,0,0,0,.287-2.01V-15.258a3.785,3.785,0,0,0-.383-2.174,2.009,2.009,0,0,0-1.586-.6h-.7v-.506h6.754a16.061,16.061,0,0,1,4.354.431,4.982,4.982,0,0,1,2.379,1.586,4.126,4.126,0,0,1,.978,2.755A4.329,4.329,0,0,1,88.519-10.8a6.294,6.294,0,0,1-3.452,1.777l3.828,5.318A9.512,9.512,0,0,0,91.15-1.271a5.682,5.682,0,0,0,2.461.766ZM80.445-9.529q.26,0,.451.007t.314.007a6.024,6.024,0,0,0,4-1.148,3.676,3.676,0,0,0,1.347-2.926,3.819,3.819,0,0,0-1.087-2.823A3.89,3.89,0,0,0,82.592-17.5a12.066,12.066,0,0,0-2.146.26Zm25.73,3.322H99L97.74-3.281a4.632,4.632,0,0,0-.465,1.613.937.937,0,0,0,.4.745,3.524,3.524,0,0,0,1.743.417V0H93.584V-.506a3.146,3.146,0,0,0,1.5-.533,8.375,8.375,0,0,0,1.545-2.666l6.521-15.258h.479l6.453,15.422A7.03,7.03,0,0,0,111.5-1.128a2.885,2.885,0,0,0,1.771.622V0h-7.314V-.506a2.742,2.742,0,0,0,1.5-.369.952.952,0,0,0,.39-.766,5.668,5.668,0,0,0-.547-1.9Zm-.383-1.012-3.145-7.492L99.422-7.219ZM125.043,0l-7.164-15.6V-3.213a3.793,3.793,0,0,0,.369,2.133,2.027,2.027,0,0,0,1.6.574h.656V0h-6.453V-.506h.656a1.883,1.883,0,0,0,1.668-.711,4.149,4.149,0,0,0,.3-2V-15.326A4.236,4.236,0,0,0,116.4-17.1a1.517,1.517,0,0,0-.7-.663,3.777,3.777,0,0,0-1.647-.267v-.506h5.25l6.727,14.506,6.617-14.506h5.25v.506h-.643a1.9,1.9,0,0,0-1.682.711,4.149,4.149,0,0,0-.3,2V-3.213a3.679,3.679,0,0,0,.383,2.133,2.027,2.027,0,0,0,1.6.574h.643V0H130.02V-.506h.656a1.862,1.862,0,0,0,1.668-.711,4.149,4.149,0,0,0,.3-2V-15.6L125.494,0ZM158.32-18.963v6.412h-.506a7.988,7.988,0,0,0-.882-2.939,4.588,4.588,0,0,0-1.812-1.736,5.011,5.011,0,0,0-2.434-.643,3.31,3.31,0,0,0-2.352.868,2.641,2.641,0,0,0-.93,1.976,2.34,2.34,0,0,0,.588,1.545,15.115,15.115,0,0,0,4.033,2.734,27.871,27.871,0,0,1,3.548,2.14,5.218,5.218,0,0,1,1.463,1.757,4.628,4.628,0,0,1,.513,2.119,4.8,4.8,0,0,1-1.634,3.63,5.917,5.917,0,0,1-4.2,1.524A8.9,8.9,0,0,1,152.2.3a15.493,15.493,0,0,1-1.757-.5,7.877,7.877,0,0,0-1.688-.431.716.716,0,0,0-.54.205,1.633,1.633,0,0,0-.294.848h-.506V-5.934h.506a8.986,8.986,0,0,0,.957,2.987A4.6,4.6,0,0,0,150.712-1.3a5.7,5.7,0,0,0,2.714.656,3.86,3.86,0,0,0,2.7-.9,2.8,2.8,0,0,0,.991-2.133,2.892,2.892,0,0,0-.376-1.381,4.115,4.115,0,0,0-1.169-1.3A33.522,33.522,0,0,0,152.66-8.1a28.249,28.249,0,0,1-3.384-2.126,5.734,5.734,0,0,1-1.524-1.75,4.341,4.341,0,0,1-.52-2.105,4.564,4.564,0,0,1,1.531-3.438,5.456,5.456,0,0,1,3.9-1.442,7.817,7.817,0,0,1,3.131.725,3.221,3.221,0,0,0,1.08.342.814.814,0,0,0,.581-.212,1.691,1.691,0,0,0,.362-.854Zm18.936.424.205,4.348h-.52a5.251,5.251,0,0,0-.41-1.641A2.744,2.744,0,0,0,175.4-17a3.933,3.933,0,0,0-1.853-.376h-2.611V-3.213a3.793,3.793,0,0,0,.369,2.133,2.053,2.053,0,0,0,1.6.574h.643V0h-7.861V-.506h.656a1.883,1.883,0,0,0,1.668-.711,4.149,4.149,0,0,0,.3-2V-17.377h-2.229a6.214,6.214,0,0,0-1.846.191,2.534,2.534,0,0,0-1.217,1,4.041,4.041,0,0,0-.6,2h-.52l.219-4.348Zm14.26.506v-.506h6.563v.506h-.7a1.883,1.883,0,0,0-1.682.916,4.183,4.183,0,0,0-.287,1.969v7.52a13.289,13.289,0,0,1-.554,4.327,5.432,5.432,0,0,1-2.174,2.639,7.746,7.746,0,0,1-4.409,1.1,8.3,8.3,0,0,1-4.607-1.053,5.7,5.7,0,0,1-2.229-2.83A15.709,15.709,0,0,1,181-8.012v-7.246a3.631,3.631,0,0,0-.472-2.242,1.94,1.94,0,0,0-1.524-.533h-.7v-.506h8.012v.506h-.711a1.838,1.838,0,0,0-1.641.725,4.047,4.047,0,0,0-.342,2.051v8.08a17.808,17.808,0,0,0,.2,2.475,5.267,5.267,0,0,0,.718,2.174,3.9,3.9,0,0,0,1.5,1.285,5.176,5.176,0,0,0,2.4.506,6.616,6.616,0,0,0,3.254-.793,4.249,4.249,0,0,0,1.962-2.03,11.76,11.76,0,0,0,.526-4.19v-7.506a3.827,3.827,0,0,0-.383-2.174,2.009,2.009,0,0,0-1.586-.6ZM198.857,0V-.506h.7a1.842,1.842,0,0,0,1.668-.752,4.285,4.285,0,0,0,.3-2.023V-15.258a3.827,3.827,0,0,0-.383-2.174,2.009,2.009,0,0,0-1.586-.6h-.7v-.506H206.4a16.481,16.481,0,0,1,6.323.943,7.523,7.523,0,0,1,3.486,3.145,9.7,9.7,0,0,1,1.319,5.086A9.276,9.276,0,0,1,215.182-2.9Q212.543,0,207.143,0Zm5.291-1.34a13.963,13.963,0,0,0,2.912.383,6.914,6.914,0,0,0,5.264-2.229,8.475,8.475,0,0,0,2.092-6.043,8.464,8.464,0,0,0-2.092-6.057,7.062,7.062,0,0,0-5.373-2.215,11.61,11.61,0,0,0-2.8.4Zm23.092.834V0H219.3V-.506h.656a1.98,1.98,0,0,0,1.668-.67,4.164,4.164,0,0,0,.328-2.105V-15.258a6.139,6.139,0,0,0-.178-1.859,1.232,1.232,0,0,0-.561-.588,2.591,2.591,0,0,0-1.258-.328H219.3v-.506h7.943v.506h-.67a1.963,1.963,0,0,0-1.654.67,4.019,4.019,0,0,0-.342,2.105V-3.281a6.139,6.139,0,0,0,.178,1.859,1.224,1.224,0,0,0,.574.588,2.515,2.515,0,0,0,1.244.328ZM16.2,21.461l.205,4.348h-.52a5.25,5.25,0,0,0-.41-1.641A2.744,2.744,0,0,0,14.349,23a3.933,3.933,0,0,0-1.853-.376H9.885V36.787a3.793,3.793,0,0,0,.369,2.133,2.053,2.053,0,0,0,1.6.574H12.5V40H4.635v-.506h.656a1.883,1.883,0,0,0,1.668-.711,4.149,4.149,0,0,0,.3-2V22.623H5.031a6.214,6.214,0,0,0-1.846.191,2.534,2.534,0,0,0-1.217,1,4.041,4.041,0,0,0-.6,2H.848l.219-4.348Zm6.754,1.012V29.8h4.074a3.321,3.321,0,0,0,2.119-.479,3.08,3.08,0,0,0,.793-2.215h.506v6.453h-.506a7.056,7.056,0,0,0-.383-1.736,1.711,1.711,0,0,0-.807-.752,4.118,4.118,0,0,0-1.723-.273H22.955V36.91a5.677,5.677,0,0,0,.109,1.5.86.86,0,0,0,.383.424,2.325,2.325,0,0,0,1.039.157h3.145a8.519,8.519,0,0,0,2.283-.219,3.405,3.405,0,0,0,1.367-.861,10.52,10.52,0,0,0,1.736-2.557h.547L31.965,40H17.678v-.506h.656a2.6,2.6,0,0,0,1.244-.314,1.15,1.15,0,0,0,.595-.656,6.434,6.434,0,0,0,.157-1.791V24.688a3.987,3.987,0,0,0-.355-2.174,2.118,2.118,0,0,0-1.641-.547h-.656v-.506H31.965l.205,4.061h-.533A6.406,6.406,0,0,0,31,23.512a2.183,2.183,0,0,0-1.032-.834,6.193,6.193,0,0,0-1.928-.205Zm19.619,7.246,6.836,6.795a12.481,12.481,0,0,0,2.871,2.29,6.127,6.127,0,0,0,2.379.69V40H45.842v-.506a1.9,1.9,0,0,0,1.142-.267.752.752,0,0,0,.349-.595,1.3,1.3,0,0,0-.13-.588,5.209,5.209,0,0,0-.854-.971l-6.4-6.33v5.975a6.139,6.139,0,0,0,.178,1.859,1.224,1.224,0,0,0,.574.588,2.515,2.515,0,0,0,1.244.328h.629V40h-7.9v-.506h.656A1.98,1.98,0,0,0,37,38.824a4.164,4.164,0,0,0,.328-2.105V24.742a6.29,6.29,0,0,0-.178-1.873,1.249,1.249,0,0,0-.561-.574,2.591,2.591,0,0,0-1.258-.328h-.656v-.506h7.9v.506h-.629a2.653,2.653,0,0,0-1.244.314,1.186,1.186,0,0,0-.588.656,6.248,6.248,0,0,0-.164,1.8v5.674q.273-.26,1.873-1.736a41.126,41.126,0,0,0,4.908-4.963,1.791,1.791,0,0,0,.369-.957.706.706,0,0,0-.287-.554,1.529,1.529,0,0,0-.971-.239h-.424v-.506h6.809v.506a4.051,4.051,0,0,0-1.094.164,5.615,5.615,0,0,0-1.2.581A11.781,11.781,0,0,0,48.18,24.1q-.3.273-2.775,2.8Zm11.484-8.258H59.09l11.334,13.9V24.674a3.679,3.679,0,0,0-.383-2.133,2.027,2.027,0,0,0-1.6-.574H67.8v-.506h6.453v.506H73.6a1.883,1.883,0,0,0-1.668.711,4.149,4.149,0,0,0-.3,2V40.3h-.492L58.912,25.371V36.787a3.793,3.793,0,0,0,.369,2.133,2.053,2.053,0,0,0,1.6.574h.656V40H55.084v-.506h.643a1.9,1.9,0,0,0,1.682-.711,4.149,4.149,0,0,0,.3-2V23.895a8.449,8.449,0,0,0-1.224-1.244,4.493,4.493,0,0,0-1.224-.561,4.358,4.358,0,0,0-1.2-.123Zm29.23,18.033V40H75.346v-.506H76a1.98,1.98,0,0,0,1.668-.67A4.164,4.164,0,0,0,78,36.719V24.742a6.139,6.139,0,0,0-.178-1.859,1.232,1.232,0,0,0-.561-.588A2.591,2.591,0,0,0,76,21.967h-.656v-.506h7.943v.506h-.67a1.963,1.963,0,0,0-1.654.67,4.018,4.018,0,0,0-.342,2.105V36.719a6.139,6.139,0,0,0,.178,1.859,1.224,1.224,0,0,0,.574.588,2.515,2.515,0,0,0,1.244.328Zm9.051-9.775,6.836,6.795a12.481,12.481,0,0,0,2.871,2.29,6.127,6.127,0,0,0,2.379.69V40H95.607v-.506a1.9,1.9,0,0,0,1.142-.267.752.752,0,0,0,.349-.595,1.3,1.3,0,0,0-.13-.588,5.209,5.209,0,0,0-.854-.971l-6.4-6.33v5.975a6.139,6.139,0,0,0,.178,1.859,1.224,1.224,0,0,0,.574.588,2.515,2.515,0,0,0,1.244.328h.629V40h-7.9v-.506h.656a1.98,1.98,0,0,0,1.668-.67,4.164,4.164,0,0,0,.328-2.105V24.742a6.29,6.29,0,0,0-.178-1.873,1.249,1.249,0,0,0-.561-.574,2.591,2.591,0,0,0-1.258-.328h-.656v-.506h7.9v.506h-.629a2.653,2.653,0,0,0-1.244.314,1.186,1.186,0,0,0-.588.656,6.248,6.248,0,0,0-.164,1.8v5.674q.273-.26,1.873-1.736A41.125,41.125,0,0,0,96.5,23.717a1.791,1.791,0,0,0,.369-.957.706.706,0,0,0-.287-.554,1.529,1.529,0,0,0-.971-.239h-.424v-.506h6.809v.506a4.052,4.052,0,0,0-1.094.164,5.616,5.616,0,0,0-1.2.581,11.781,11.781,0,0,0-1.75,1.388q-.3.273-2.775,2.8Zm27.494,9.775V40h-7.943v-.506h.656a1.98,1.98,0,0,0,1.668-.67,4.164,4.164,0,0,0,.328-2.105V24.742a6.139,6.139,0,0,0-.178-1.859,1.232,1.232,0,0,0-.561-.588,2.591,2.591,0,0,0-1.258-.328h-.656v-.506h7.943v.506h-.67a1.963,1.963,0,0,0-1.654.67,4.018,4.018,0,0,0-.342,2.105V36.719a6.139,6.139,0,0,0,.178,1.859,1.224,1.224,0,0,0,.574.588,2.515,2.515,0,0,0,1.244.328Zm.314-18.033h5.031l11.334,13.9V24.674a3.679,3.679,0,0,0-.383-2.133,2.027,2.027,0,0,0-1.6-.574h-.643v-.506h6.453v.506h-.656a1.883,1.883,0,0,0-1.668.711,4.149,4.149,0,0,0-.3,2V40.3h-.492L125,25.371V36.787a3.793,3.793,0,0,0,.369,2.133,2.053,2.053,0,0,0,1.6.574h.656V40h-6.453v-.506h.643a1.9,1.9,0,0,0,1.682-.711,4.149,4.149,0,0,0,.3-2V23.895a8.449,8.449,0,0,0-1.224-1.244,4.493,4.493,0,0,0-1.224-.561,4.358,4.358,0,0,0-1.2-.123Zm26.318,1.012V29.76h3.377a2.406,2.406,0,0,0,1.7-.513,3.392,3.392,0,0,0,.718-2.03h.506v6.275h-.506a3.664,3.664,0,0,0-.28-1.586,1.773,1.773,0,0,0-.738-.759,3.051,3.051,0,0,0-1.4-.253h-3.377v5.824a6.139,6.139,0,0,0,.178,1.859,1.224,1.224,0,0,0,.574.588,2.591,2.591,0,0,0,1.258.328h.67V40h-7.957v-.506h.656a1.98,1.98,0,0,0,1.668-.67,4.164,4.164,0,0,0,.328-2.105V24.742a6.139,6.139,0,0,0-.178-1.859,1.232,1.232,0,0,0-.561-.588,2.54,2.54,0,0,0-1.258-.328h-.656v-.506h13.795l.178,4.074h-.479a5.6,5.6,0,0,0-.827-1.907,2.716,2.716,0,0,0-1.162-.882,6.2,6.2,0,0,0-2.14-.273Zm20.084-1.436a8.408,8.408,0,0,1,6.255,2.741,9.463,9.463,0,0,1,2.646,6.843,9.746,9.746,0,0,1-2.666,7.014A8.912,8.912,0,0,1,159.9,37.7a9.761,9.761,0,0,1-2.6-7.041,9.38,9.38,0,0,1,3.008-7.205A8.873,8.873,0,0,1,166.551,21.037Zm-.26,1a4.892,4.892,0,0,0-3.992,1.846q-1.873,2.3-1.873,6.727,0,4.539,1.941,6.986a4.8,4.8,0,0,0,3.938,1.859,5.38,5.38,0,0,0,4.313-2.037q1.7-2.037,1.7-6.426,0-4.758-1.873-7.1A5.052,5.052,0,0,0,166.291,22.035ZM195.453,40H190.5l-6.275-8.668q-.7.027-1.135.027-.178,0-.383-.007t-.424-.021v5.387a3.785,3.785,0,0,0,.383,2.174,1.948,1.948,0,0,0,1.559.6h.725V40H177.01v-.506h.7a1.864,1.864,0,0,0,1.682-.766,4.316,4.316,0,0,0,.287-2.01V24.742a3.785,3.785,0,0,0-.383-2.174,2.009,2.009,0,0,0-1.586-.6h-.7v-.506h6.754a16.061,16.061,0,0,1,4.354.431,4.982,4.982,0,0,1,2.379,1.586,4.126,4.126,0,0,1,.978,2.755A4.329,4.329,0,0,1,190.36,29.2a6.294,6.294,0,0,1-3.452,1.777l3.828,5.318a9.512,9.512,0,0,0,2.256,2.434,5.682,5.682,0,0,0,2.461.766Zm-13.166-9.529q.26,0,.451.007t.314.007a6.024,6.024,0,0,0,4-1.148A3.676,3.676,0,0,0,188.4,26.41a3.819,3.819,0,0,0-1.087-2.823,3.89,3.89,0,0,0-2.878-1.087,12.066,12.066,0,0,0-2.146.26ZM206.664,40,199.5,24.4V36.787a3.793,3.793,0,0,0,.369,2.133,2.027,2.027,0,0,0,1.6.574h.656V40h-6.453v-.506h.656A1.883,1.883,0,0,0,198,38.783a4.149,4.149,0,0,0,.3-2V24.674a4.236,4.236,0,0,0-.273-1.777,1.517,1.517,0,0,0-.7-.663,3.777,3.777,0,0,0-1.647-.267v-.506h5.25l6.727,14.506,6.617-14.506h5.25v.506h-.643a1.9,1.9,0,0,0-1.682.711,4.149,4.149,0,0,0-.3,2V36.787a3.679,3.679,0,0,0,.383,2.133,2.027,2.027,0,0,0,1.6.574h.643V40h-7.875v-.506h.656a1.862,1.862,0,0,0,1.668-.711,4.149,4.149,0,0,0,.3-2V24.4L207.115,40Zm26.25-6.207h-7.178l-1.258,2.926a4.632,4.632,0,0,0-.465,1.613.937.937,0,0,0,.4.745,3.524,3.524,0,0,0,1.743.417V40h-5.838v-.506a3.146,3.146,0,0,0,1.5-.533,8.375,8.375,0,0,0,1.545-2.666l6.521-15.258h.479l6.453,15.422a7.03,7.03,0,0,0,1.415,2.413,2.885,2.885,0,0,0,1.771.622V40H232.7v-.506a2.742,2.742,0,0,0,1.5-.369.952.952,0,0,0,.39-.766,5.669,5.669,0,0,0-.547-1.9Zm-.383-1.012-3.145-7.492-3.227,7.492Zm20.891-11.32.205,4.348h-.52a5.251,5.251,0,0,0-.41-1.641A2.744,2.744,0,0,0,251.569,23a3.933,3.933,0,0,0-1.853-.376h-2.611V36.787a3.793,3.793,0,0,0,.369,2.133,2.053,2.053,0,0,0,1.6.574h.643V40h-7.861v-.506h.656a1.883,1.883,0,0,0,1.668-.711,4.149,4.149,0,0,0,.3-2V22.623h-2.229a6.214,6.214,0,0,0-1.846.191,2.534,2.534,0,0,0-1.217,1,4.041,4.041,0,0,0-.6,2h-.52l.219-4.348Zm9.543,18.033V40h-7.943v-.506h.656a1.98,1.98,0,0,0,1.668-.67,4.164,4.164,0,0,0,.328-2.105V24.742a6.138,6.138,0,0,0-.178-1.859,1.232,1.232,0,0,0-.561-.588,2.591,2.591,0,0,0-1.258-.328h-.656v-.506h7.943v.506h-.67a1.963,1.963,0,0,0-1.654.67,4.018,4.018,0,0,0-.342,2.105V36.719a6.138,6.138,0,0,0,.178,1.859,1.224,1.224,0,0,0,.574.588,2.515,2.515,0,0,0,1.244.328Zm9.051-9.775,6.836,6.795a12.481,12.481,0,0,0,2.871,2.29,6.127,6.127,0,0,0,2.379.69V40h-8.818v-.506a1.9,1.9,0,0,0,1.142-.267.752.752,0,0,0,.349-.595,1.3,1.3,0,0,0-.13-.588,5.209,5.209,0,0,0-.854-.971l-6.4-6.33v5.975a6.138,6.138,0,0,0,.178,1.859,1.224,1.224,0,0,0,.574.588,2.515,2.515,0,0,0,1.244.328h.629V40h-7.9v-.506h.656a1.98,1.98,0,0,0,1.668-.67,4.164,4.164,0,0,0,.328-2.105V24.742a6.29,6.29,0,0,0-.178-1.873,1.249,1.249,0,0,0-.561-.574,2.591,2.591,0,0,0-1.258-.328h-.656v-.506h7.9v.506h-.629a2.653,2.653,0,0,0-1.244.314,1.186,1.186,0,0,0-.588.656,6.248,6.248,0,0,0-.164,1.8v5.674q.273-.26,1.873-1.736a41.125,41.125,0,0,0,4.908-4.963,1.791,1.791,0,0,0,.369-.957.706.706,0,0,0-.287-.554,1.529,1.529,0,0,0-.971-.239h-.424v-.506h6.809v.506a4.052,4.052,0,0,0-1.094.164,5.616,5.616,0,0,0-1.2.581,11.781,11.781,0,0,0-1.75,1.388q-.3.273-2.775,2.8Zm24.664,4.074H289.5l-1.258,2.926a4.632,4.632,0,0,0-.465,1.613.937.937,0,0,0,.4.745,3.524,3.524,0,0,0,1.743.417V40h-5.838v-.506a3.146,3.146,0,0,0,1.5-.533,8.375,8.375,0,0,0,1.545-2.666l6.521-15.258h.479l6.453,15.422A7.03,7.03,0,0,0,302,38.872a2.885,2.885,0,0,0,1.771.622V40h-7.314v-.506a2.742,2.742,0,0,0,1.5-.369.952.952,0,0,0,.39-.766,5.668,5.668,0,0,0-.547-1.9Zm-.383-1.012-3.145-7.492-3.227,7.492Z" transform="translate(-2183.981 1030.127)" fill="#fff"/><g transform="translate(-2421.208 979)"><path d="M31.032,65.933c-1.6,0-2.916.246-2.916-1.919l-.023-1.626,4.416-.889C32.508,62.715,32.789,65.933,31.032,65.933ZM113.946,26.49l1.288.4,2.542-8.74Zm-19,.386,1.078-.374.187-.023-3.5-7.687,2.225,8.073Zm-8.6,5.417,1.944-1.58-18.237-18.7L86.351,32.305Zm35.806-1.79,1.7,1.685,16.2-20.219c-.551.374-3.83,3.85-4.463,4.563-1.429,1.638-2.975,3.112-4.533,4.657l-8.9,9.314ZM73.725,86.6c1.078.246,1.148.527,1.148,1.8V93.98c0,1.275-.07,1.556-1.148,1.8v1.006l2.132-.187.656-.035,2.132.2v-.983c-.492-.117-.984-.094-.984-.655V87.252c0-.562.492-.538.984-.655V85.59l-1.8.187a26.512,26.512,0,0,1-3.116-.164V86.6Zm30.207-61.51h2.4L105.244,0l-1.312,25.1ZM24.953,86.269c0,.936,1.148-.047,1.148,1.474v6.892c0,.819-.387,1.088-1.148,1.147V96.8l2.788-.187.164-.035,2.132.2v-.983c-.562-.047-1.148-.234-1.148-.819V87.427c0-.585.586-.772,1.148-.819V85.59l-2.952.2c-.937.07-1.183-.164-2.132-.164v.655Zm115.593,0c0,1.03,1.148-.281,1.148,1.8v6.564c0,.819-.387,1.088-1.148,1.147V96.8l2.624-.2c.984-.082,1.429.164,2.46.164v-.983c-.562-.047-1.148-.234-1.148-.819V87.743c0-.819.387-1.088,1.148-1.147V85.579l-2.952.2c-.925.07-1.183-.164-2.132-.164v.655Zm69.62,8.53v-.655l-1.148-.164c-.551.831-.351,1.474-1.8,1.474h-.656c-.5,0-.984-.152-.984-.655V87.252c0-.562.609-.608,1.148-.655V85.579l-2.46.187-.492.035-2.132-.2v.983c.492.117.984.094.984.655v7.875c0,.538-.469.608-.984.655v.983h7.719c.8,0,.316-1.182.82-1.966Zm-63.705-8.53c0,.538.469.608.984.655a54.556,54.556,0,0,0,2.085,5.137c.34.831,1.8,4.867,2.507,4.867h.984c.023-.328,1.979-4.867,2.272-5.441.656-1.322,1.394-4.762,2.987-4.891V85.579l-2.624.2c-.632.058-.574-.152-1.312-.164V86.6c.363.035,1.148.152,1.148.491a27.7,27.7,0,0,1-2.624,6.4c-.258-.55-2.46-6.131-2.46-6.236,0-.562.492-.538.984-.655V85.59l-1.8.187-.984.035-2.132-.2v.655ZM30.868,86.6c1.5.351,1.1,1.006,1.687,2.247.445.936.785,1.767,1.195,2.738.328.784,1.991,5.347,2.53,5.347h.656c.761,0,2.448-4.563,2.788-5.417.375-.936.761-1.931,1.206-2.9a8.164,8.164,0,0,1,.691-1.439c.5-.7,1.054-.433,1.054-1.076,0-.948-1.019-.269-1.64-.293l-2.3-.2v1.147H39.4c.375,0,.492.117.492.491V87.4a26.659,26.659,0,0,1-2.624,5.909c-.223-.468-2.46-6.026-2.46-6.073,0-.562.492-.538.984-.655V85.579l-2.132.187L33,85.8l-2.132-.2v.983Zm48.924.328c-.2.293-.328.293-.328.655v.491h1.312c.152-.632.375-.983,1.148-.983h1.64v7.547c0,.831-.328,1.135-1.148,1.147V96.8l3.116-.2c.937-.07,1.183.164,2.132.164v-.983h-.492c-.644,0-.82-.807-.82-1.474V87.088h1.968c.785,0,.363.983,1.148.983a2.428,2.428,0,0,0,.82-.164v-.491c0-.948.738-2.13-.164-2.13h-.328c-.574,0-.246.328-.82.328h-6.9c-.714,0-.6-.328-1.312-.328h-.328c-.738,0-.656.889-.656,1.638ZM180.6,88.071v1.638c0,1.7,4.6,3.124,4.6,4.1v.655c0,.9-.855,1.31-1.64,1.31h-.328c-1.019,0-1.558-1.03-1.64-1.966h-1.148v2.925l3.116.2h.984c1.5,0,3.444-1.58,3.444-2.785V93c0-2.8-4.767-2.832-4.767-4.926v-.164a1.017,1.017,0,0,1,1.148-1.147h.328c1.394,0,1.382.538,1.64,1.638H187c.269,0,.492-.094.492-.328,0-2.89-.293-2.621-3.28-2.621-1.757,0-3.608.983-3.608,2.621ZM64.847,88.4v.328c0,3.276,4.755,3.826,4.755,5.09v.655c0,.983-.668,1.31-1.64,1.31h-.656c-.7,0-1.171-1.182-1.312-1.8H64.847l-.035.655.2,2.13a2.428,2.428,0,0,0,.82.164h3.116a3.43,3.43,0,0,0,3.444-3.6v-.491c0-2.574-4.755-2.668-4.755-4.762v-.164a1.017,1.017,0,0,1,1.148-1.147h.328a1.912,1.912,0,0,1,1.441.5l.211,1.147h.656c.258,0,.515-.105.527-.328l-.211-2.434-1.8-.187h-.82c-2.2,0-4.263.971-4.263,2.949Zm37.762.164v.328c0,3.323,4.767,3.335,4.767,5.254v.491c0,.527-.832,1.147-1.476,1.147h-.82c-1.312,0-.738-1.966-1.8-1.966h-.164c-.375,0-.492.117-.492.491v2.434l2.46.187h1.476a3.592,3.592,0,0,0,3.608-3.44v-.655c0-2.211-4.755-3.1-4.755-4.435v-.819c0-.644.808-.819,1.476-.819h.328c1.569,0,.621,1.638,1.64,1.638h.328c.89,0,.328-1.849.328-2.738l-3.116-.211a3.425,3.425,0,0,0-3.771,3.112Zm91.172.679.281-.023,1.089,2.913-2.483.012Zm-5.142,7.032v.491h3.444l-.012-.948-.878-.222.726-2.106h3.444c.632,0,1.1,1.556,1.148,2.13-.422.094-.82.14-.82.655v.515l2.132-.187.656-.035,2.132.2v-.655c0-.8-.527-.187-1.124-.854a4.887,4.887,0,0,1-.6-1.369c-.433-.948-.761-1.825-1.206-2.738-.293-.6-2.307-5.218-2.331-5.546h-.984c-.726,0-2.272,4.587-2.753,5.441s-.761,1.931-1.242,2.867c-.211.41-.433,1.112-.6,1.369-.445.737-1.16.176-1.16.983Zm-95.072-4.1c.023-.831.7-2.785,1.312-2.949L95.9,92.166l-2.331.012Zm.984-6.4c-.105,1.275-1.8,4.048-2.225,5.312-.41,1.217-.761,1.685-1.113,2.656-.387,1.041-.527,2-1.745,2.036v.983H92.91v-.491c0-.55-.293-.48-.82-.491V95.29c0-.69.492-1.076.656-1.8H96.19c.515,0,.984,1.4.984,1.966,0,.339-.34.3-.656.328v1.006l2.46-.187.328-.035,2.132.2v-.983c-1.616-.035-2.471-3.463-3.034-4.844-.328-.784-2.132-5.335-2.706-5.335H95.37a2.552,2.552,0,0,0-.82.164Zm64.525.819.82.164c.129.573.328.55.328,1.147v7.055c0,.6-.515.807-1.148.819V96.8l4.1-.2.984-.035,3.116.2c.023-.9,1.007-2.785,0-2.785h-.328c-1,0-.269,1.474-1.968,1.474h-1.312a.922.922,0,0,1-.82-.819V91.686h2.46c.117.491.094.983.656.983h.328c.375,0,.492-.117.492-.491V89.557h-1.312c-.012.772-.234.983-.984.983h-1.64V86.772h1.476a2.428,2.428,0,0,1,.82.164c.047.527.281,1.31.82,1.31h.164c.375,0,.492-.117.492-.491v-2.13h-7.555v.983ZM43.483,86.269c0,.889,1.148.211,1.148,1.147v7.547c0,.6-.515.807-1.148.819v.983h8.375v-.655c0-.854.328-.948.328-1.638,0-.374-.117-.491-.492-.491h-.328c-1.019,0-.07,1.474-2.132,1.474H48.086c-.527,0-.82-.6-.82-1.147V91.686H49.4c.914,0,.07.983.984.983h.328c.375,0,.492-.117.492-.491V89.557H49.89c-.012.772-.234.983-.984.983h-1.64v-3.6h2.3c.129.573.141,1.31.82,1.31h.164c.375,0,.492-.117.492-.491l.035-.667-.2-1.474H43.483v.655Zm72.08.328c1.5.351,1.148.854,1.148,2.633,0,.5.129,3.007.234,3.545.387,2.13,1.16,4.165,3.549,4.165h1.8c2.331,0,3.116-2.106,3.479-4.236a16.366,16.366,0,0,0,.293-3.639c0-3.569,1.148-1.638,1.148-2.785v-.69l-1.968.2c-.843.094-1.968-.62-1.968.328v.491c.5.117,1.312.234,1.312.819v4.587c0,1.673-.785,3.6-2.46,3.6-2.553,0-2.624-2.9-2.624-5.417V87.416c0-.854,1.312-.456,1.312-1.31s-1.113-.328-1.968-.328l-1.148.035-2.132-.2V86.6ZM-.03,86.6l1.148.328v.491c0,3.978-.07,9.513,3.771,9.513h1.8c2.155,0,3.233-2.165,3.467-4.247a24.278,24.278,0,0,0,.316-3.627c0-3.569,1.148-1.638,1.148-2.785v-.7l-1.968.211a18.287,18.287,0,0,1-1.968-.164v.655c0,.913,1.312.164,1.312,1.147v4.423c0,2.118-.621,3.768-2.788,3.768H6.049c-1.089,0-1.347-.959-1.792-1.638l-.34-4.914V87.416c0-.585.82-.7,1.312-.819V85.579l-2.46.187-.656.035-2.132-.2v.983Zm128.887,8.53c0,.585-.562.644-1.148.655v.983h3.935v-.983c-.6-.012-1.312-.07-1.312-.655V89.709c1.078.386,5.9,7.055,6.571,7.055h1.476V87.416c0-.632.656-.807,1.312-.819V85.579l-2.3.2c-.714.07-.82-.164-1.64-.164v.655c0,.6.41.491.949.527l.363.293v5.745c-1.183-.8-6.02-7.219-6.735-7.219h-1.476Zm-115.593.328-1.148.328v.983h3.935l-.012-.924-1.3-.386.023-5.921,6.219,7.231h1.8V88.071c0-1.287.293-1.24,1.312-1.474V85.579l-1.8.2c-.656.082-1.265-.164-2.132-.164v.655c0,.6.41.491.949.527l.363.293v5.745c-1.148-.772-6.032-7.219-6.735-7.219h-.984c-.867,0-.492,3.639-.492,4.6v5.254Zm159.105-8.53h.82c1.007,0,1.476.784,1.476,1.8v.328c0,1.287-.937,1.8-2.3,1.8V86.924ZM177.3,97.092h1.8l.586-.234-4.2-5.663a2.978,2.978,0,0,0,1.968-2.621c0-4.224-3.912-2.375-7.227-2.761l-1.8-.187v.983c.562.047,1.148.234,1.148.819v7.547c0,.585-.586.772-1.148.819v1.03l2.624-.211c.75-.059,1.335.164,2.3.164v-.983c-.492-.117-.984-.094-.984-.655V92.026c1.136.023,1.792,1.907,2.3,2.633,1.136,1.626,1.359,1.357,2.624,2.457ZM56.788,86.924h.82c1.007,0,1.476.784,1.476,1.8v.164c0,1.474-.808,1.966-2.3,1.966Zm4.931,10.168h1.968l.445-.246-4.217-5.651c.714-.187,1.8-1.217,1.8-1.966V87.755c0-3.1-4.392-1.72-6.735-1.931l-2.132-.2v.983c.492.047,1.148.328,1.148.819v7.219c0,.819-.387,1.088-1.148,1.147v1.018l2.788-.187a19.091,19.091,0,0,1,2.132.164V95.8c-.492-.117-.984-.094-.984-.655V92.037c1.136.023,1.792,1.907,2.3,2.633,1.089,1.556,1.406,1.392,2.635,2.457Zm-.234-47.247,5.446-.655,2.015-14.263-5.493.012Zm-8.656,1.65L59.107,50.3,57.3,34.926H50.393l2.448,16.568ZM32.5,56.736l6.571-1.8V34.926H32.5Zm-11.982,4.1,7.391-2.27V35.09H20.514V60.843Zm60.1-13.28,7.719-.328c0-3.92,4.381-9.407,6.688-11.361,2.881-2.445,7.789-5.207,13.013-5.207h.656c7.941,1.088,10.272,2.773,16.421,6.892-1.534-5.733-13.786-10.168-18.881-10.168h-.656c-6.946,0-13.189,2.422-16.714,5.78a30.182,30.182,0,0,0-5.189,6.131,24.345,24.345,0,0,0-3.057,8.272Zm56.807,1.474,7.063.819V40.824h1.148c2.916,0,3.444,2.34,3.444,5.254v.164a5.574,5.574,0,0,1-1.3,4.177l6.875,1.392c.328-1.392,1.312-2.679,1.312-4.75V44.6c0-5.722-3.549-9.676-9.194-9.676h-9.358V49.037ZM167.79,44.1v.983a12.469,12.469,0,0,0,2.694,7.313c1.23,1.673,4.146,3.674,5.025,4.984l10.331,3c0-3.744-3.127-6.529-5.61-9.021-1.628-1.638-6.2-4.7-6.2-7.418,0-1.8.679-3.276,2.46-3.276h.492c1.37,0,2.3,1.931,2.3,3.112V45.9h5.915v-3.44c0-3.194-3.537-7.383-6.735-7.383h-3.116c-3.853,0-7.555,4.8-7.555,9.021ZM59.892,57.064l.609-.012-.258,2.305h-.117L59.9,57.064ZM23.969,61.335c-2.717.714-17.241,6.061-18.553,7.231l15.2-4.47.059.176v1.147c0,3.136,3.959,6.4,7.227,6.4h2.788c3.432,0,5.927-1.31,7.227-3.44a9.458,9.458,0,0,0,1.148-4.259c0-.878.012-1.755,0-2.633-.023-1.86.035-.889,1.16-1.58l13.5-2.013,2.085,13.924,7.8-.012L65.831,56.4l1.628-.152,13.306-1.006c1.64,7.079,4.837,11.712,7.52,13.807,3.619,2.82,8.785,6.2,15.133,6.2h3.444a24.306,24.306,0,0,0,10.612-3.183c1.722-1.053,6.829-4.774,7.285-6.494-1.066.714-1.862,1.7-2.952,2.457a25.771,25.771,0,0,1-3.4,2.024,22.133,22.133,0,0,1-8.925,2.071c-5.692,0-11.5-2.235-14.325-5.043A23.948,23.948,0,0,1,90.7,61.85c-.9-1.463-2.565-4.926-2.553-7.079,16.48-.257,30.43-.421,49.264,1.1l-.012.176V71.8h6.9V56.865l2.132.328,3.28,14.6h6.243l-3.127-13.772a45.221,45.221,0,0,1,5.728.667c5.821.679,20.544,3.768,20.544,4.247V63.1c0,1.7-.785,3.112-2.46,3.112-2.389,0-2.963-2.422-2.952-4.294l-6.243-1.112V63.1a11.3,11.3,0,0,0,2.343,6.19,7.291,7.291,0,0,0,6.032,2.5h2.46c.047,0,2.331-.8,2.542-.9a6.625,6.625,0,0,0,2.1-1.521c.925-.936,2.589-2.925,2.589-4.633l.035-.62,10.272,2.867,5.13,1.533c-1.71-1.486-16.164-6.459-19.537-7.547A195.95,195.95,0,0,0,159.626,55.5C138.6,51.319,118,50.149,96.682,50.149c-5.751,0-11.291.433-16.585.819-19.256,1.416-37.586,5.464-56.139,10.343Z" transform="translate(0.03 0)" fill="#fff" fill-rule="evenodd"/></g></g></svg>