<svg xmlns="http://www.w3.org/2000/svg" width="43.545" height="29.938" viewBox="0 0 43.545 29.938"><g transform="translate(0 -80)"><g transform="translate(28.865 85.519)"><path d="M339.392,154.568l14.68,9.281V144.9Z" transform="translate(-339.392 -144.896)" fill="#fff"/></g><g transform="translate(0 85.519)"><path d="M0,144.9v18.953l14.68-9.281Z" transform="translate(0 -144.896)" fill="#fff"/></g><g transform="translate(0.082 80)"><path d="M41.7,80H3.6A2.688,2.688,0,0,0,.96,82.316L22.651,96.607,44.342,82.316A2.688,2.688,0,0,0,41.7,80Z" transform="translate(-0.96 -80)" fill="#fff"/></g><g transform="translate(0.087 96.833)"><path d="M27.309,277.923l-3.851,2.536a1.367,1.367,0,0,1-1.5,0L18.11,277.92,1.024,288.727a2.683,2.683,0,0,0,2.634,2.3h38.1a2.683,2.683,0,0,0,2.634-2.3Z" transform="translate(-1.024 -277.92)" fill="#fff"/></g></g></svg>